<svg xmlns="http://www.w3.org/2000/svg" viewBox="0 0 64 64">
  <rect width="64" height="64" rx="16" fill="#EFF8FC"/>
  <!-- cat face -->
  <path d="M18 26c0-7 6-12 14-12s14 5 14 12v6c0 8-6 14-14 14s-14-6-14-14z" fill="#2E9BC4"/>
  <!-- ears -->
  <path d="M18 26l-3-12 11 6z" fill="#2E9BC4"/>
  <path d="M46 26l3-12-11 6z" fill="#2E9BC4"/>
  <path d="M19 22l-1.6-6 5.6 3z" fill="#BFE6F4"/>
  <path d="M45 22l1.6-6-5.6 3z" fill="#BFE6F4"/>
  <!-- eyes -->
  <circle cx="26" cy="30" r="2.6" fill="#21404E"/>
  <circle cx="38" cy="30" r="2.6" fill="#21404E"/>
  <!-- nose -->
  <path d="M32 35l-2.4 2.4h4.8z" fill="#21404E"/>
  <!-- whiskers -->
  <g stroke="#FFFFFF" stroke-width="1.4" stroke-linecap="round">
    <path d="M24 37l-7 -1.5"/>
    <path d="M24 39l-7 1.5"/>
    <path d="M40 37l7 -1.5"/>
    <path d="M40 39l7 1.5"/>
  </g>
</svg>
